<svg xmlns="http://www.w3.org/2000/svg" viewBox="114.192 131.279 118.016 20" width="118.016" height="20">
  <path d="M 178.488 149.279 L 186.488 149.279 L 186.488 151.279 L 178.488 151.279 C 172.966 151.279 168.488 146.802 168.488 141.279 C 168.488 135.756 172.966 131.279 178.488 131.279 C 184.011 131.279 188.488 135.756 188.488 141.279 C 188.488 143.53 187.744 145.608 186.489 147.279 L 183.78 147.279 C 185.441 145.813 186.488 143.668 186.488 141.279 C 186.488 136.861 182.907 133.279 178.488 133.279 C 174.07 133.279 170.488 136.861 170.488 141.279 C 170.488 145.697 174.07 149.279 178.488 149.279 Z M 178.488 139.279 C 177.384 139.279 176.488 138.384 176.488 137.279 C 176.488 136.174 177.384 135.279 178.488 135.279 C 179.593 135.279 180.488 136.174 180.488 137.279 C 180.488 138.384 179.593 139.279 178.488 139.279 Z M 174.488 143.279 C 173.384 143.279 172.488 142.384 172.488 141.279 C 172.488 140.174 173.384 139.279 174.488 139.279 C 175.593 139.279 176.488 140.174 176.488 141.279 C 176.488 142.384 175.593 143.279 174.488 143.279 Z M 182.488 143.279 C 181.384 143.279 180.488 142.384 180.488 141.279 C 180.488 140.174 181.384 139.279 182.488 139.279 C 183.593 139.279 184.488 140.174 184.488 141.279 C 184.488 142.384 183.593 143.279 182.488 143.279 Z M 178.488 147.279 C 177.384 147.279 176.488 146.384 176.488 145.279 C 176.488 144.174 177.384 143.279 178.488 143.279 C 179.593 143.279 180.488 144.174 180.488 145.279 C 180.488 146.384 179.593 147.279 178.488 147.279 Z" fill="#2f3e46"></path>
  <text style="white-space: pre; fill: #2f3e46; font-family: Arial, sans-serif; font-size: 6px;" x="143.489" y="145.64" transform="matrix(3.15146, 0, 0, 2.736865, -338.008301, -252.187119)">Movie</text>
  <text style="white-space: pre; fill: #2f3e46; font-family: Arial, sans-serif; font-size: 6px;" x="143.489" y="145.64" transform="matrix(3.15146, 0, 0, 2.736865, -259.935577, -251.796768)">Date</text>
</svg>
